<?xml version="1.0" encoding="utf-8"?>
<!-- Generator: Adobe Illustrator 16.0.0, SVG Export Plug-In . SVG Version: 6.00 Build 0)  -->
<!DOCTYPE svg PUBLIC "-//W3C//DTD SVG 1.1//EN" "http://www.w3.org/Graphics/SVG/1.1/DTD/svg11.dtd">
<svg version="1.1" id="Calque_1" xmlns="http://www.w3.org/2000/svg" xmlns:xlink="http://www.w3.org/1999/xlink" x="0px" y="0px"
	 width="3368px" height="955.918px" viewBox="0 0 3368 955.918" enable-background="new 0 0 3368 955.918" xml:space="preserve">
<g>
	<path d="M320.225,602.336c-37.506,4.333-71.924,5.155-122.324,5.155c-56.457,0-80.06-16.595-80.06-119.414
		c0-102.824,23.604-119.424,80.06-119.424c51.977,0,77.085,1.123,113.715,3.638l11.23,0.777l10.097-67.981l-9.95-2.257
		c-39.628-8.983-70.03-11.869-125.093-11.869c-134.858,0-185.003,53.424-185.003,197.116c0,143.675,50.145,197.095,185.003,197.095
		c59.836,0,94.95-3.681,134.193-14.068l9.343-2.47l-9.314-67.686L320.225,602.336z"/>
	<rect x="383.982" y="297.256" width="100.631" height="381.631"/>
	<polygon points="801.294,297.256 801.294,439.273 656.596,439.273 656.596,297.256 555.953,297.256 555.953,678.881 
		656.596,678.881 656.596,513.292 801.294,513.292 801.294,678.881 901.933,678.881 901.933,297.256 	"/>
</g>
<g>
	<path d="M2045.681,480.752c31.21-12.65,45.995-39.815,45.995-83.347c0-86.311-54.589-102.664-155.31-102.664
		c-69.71,0-106.145,0.582-151.336,4.226l-8.904,0.717v376.852l9.002,0.646c50.763,3.641,91.803,4.228,170.352,4.228
		c94.45,0,149.133-16.8,149.133-102.682C2104.613,543.578,2097.73,498.23,2045.681,480.752z M1871.606,513.721h68.347
		c54.627,0.494,67.958,10.893,67.958,52.96c0,37.082-11.612,45.096-65.31,45.096l-70.995-0.458V513.721z M1938.828,449.32h-67.222
		v-84.946h61.057c56.799,0,65.388,9.334,65.388,41.427C1998.051,441.19,1986.981,449.32,1938.828,449.32z"/>
	<path d="M2359.24,298.932h-75.219c-17.825,0-32.422,9.165-37.114,23.134l-131.627,355.142h99.673l35.146-102.166h143.063
		l35.144,102.166h99.663l-131.543-354.925C2391.665,308.096,2377.062,298.932,2359.24,298.932z M2368.972,504.356H2274.3
		l38.941-114.193l7.9-24.755h1.027c1.39,5.261,3.18,10.582,4.918,15.785c1.014,3.021,2.016,6.008,2.978,9.111L2368.972,504.356z"/>
	<path d="M2825.898,540.991c0,9.007,0.259,18.317,0.789,28.317c-1.977-3.763-3.936-7.453-5.828-10.993
		c-3.664-6.895-7.128-13.39-10.101-19.222L2694.86,323.699c-6.979-12.869-16.778-24.767-40.978-24.767h-59.798
		c-23.929,0-38.8,12.439-38.8,32.456v345.819h95.483V427.809c0-5.136-0.049-10.563-0.21-16.224
		c2.736,5.213,5.482,10.198,7.947,14.685l121.948,225.934c5.796,11.639,15.701,25.003,41.103,25.003h61.031
		c23.896,0,38.17-12.128,38.17-32.45V298.932h-94.859V540.991z"/>
	<path d="M3219.487,508.313c-6.758-9.294-16.076-18.489-27.759-27.418c9.842-7.771,16.115-14.314,22.642-23.286l124.888-158.677
		h-107.479l-116.521,148.295h-25.064c1.731-10.447,2.552-21.352,2.552-33.572V298.932h-96.72v378.275h96.72V541.521
		c0-9.376-0.795-18.512-2.346-27.277h24.724l122.057,162.962h109.657L3219.487,508.313z"/>
</g>
<g>
	<path fill="#F15D22" d="M1517.14,574.653c-2.278-1.632-4.659-3.238-7.336-4.807l-435.482-268.765V13.617
		c0,0,461.122,283.009,488.193,301.932c26.511,18.542,39.135,45.916,39.135,91.001c0,0-0.118,125.87-0.445,149.685
		c-0.402,28.876-1.52,46.435-9.982,64.19L1517.14,574.653z"/>
	<path fill="#00AFEF" d="M1591.588,349.3l0.033,0.069c-4.958-9.11-5.952-12.645-18.41-25.198
		c7.821,24.583,3.844,31.508-7.523,40.697l-48.547,30.005c-2.272,1.622-4.659,3.233-7.336,4.803l-435.482,268.771v287.47
		c0,0,460.978-283.223,488.193-301.938c27.214-18.699,39.135-40.353,39.135-91.002V413.287c0.828-28.621,0.531-46.84-10.062-63.935"
		/>
</g>
<rect id="_x3C_Slice_x3E_" fill="none" width="3368" height="972.684"/>
</svg>
